<?xml version="1.0" encoding="UTF-8" standalone="no"?>
<svg
   xmlns:dc="http://purl.org/dc/elements/1.1/"
   xmlns:cc="http://creativecommons.org/ns#"
   xmlns:rdf="http://www.w3.org/1999/02/22-rdf-syntax-ns#"
   xmlns:svg="http://www.w3.org/2000/svg"
   xmlns="http://www.w3.org/2000/svg"
   xmlns:sodipodi="http://sodipodi.sourceforge.net/DTD/sodipodi-0.dtd"
   xmlns:inkscape="http://www.inkscape.org/namespaces/inkscape"
   sodipodi:docname="Emblem of MOI.svg"
   inkscape:version="1.0 (4035a4fb49, 2020-05-01)"
   id="svg868"
   version="1.1"
   viewBox="0 0 99.999969 77.646683"
   height="77.646683mm"
   width="99.999969mm">
  <defs
     id="defs862" />
  <sodipodi:namedview
     inkscape:window-maximized="0"
     inkscape:window-y="0"
     inkscape:window-x="128"
     inkscape:window-height="1030"
     inkscape:window-width="1424"
     showgrid="false"
     inkscape:document-rotation="0"
     inkscape:current-layer="layer1"
     inkscape:document-units="mm"
     inkscape:cy="186.85645"
     inkscape:cx="162.88677"
     inkscape:zoom="2.2701257"
     inkscape:pageshadow="2"
     inkscape:pageopacity="0.0"
     borderopacity="1.0"
     bordercolor="#666666"
     pagecolor="#ffffff"
     id="base" />
  <metadata
     id="metadata865">
    <rdf:RDF>
      <cc:Work
         rdf:about="">
        <dc:format>image/svg+xml</dc:format>
        <dc:type
           rdf:resource="http://purl.org/dc/dcmitype/StillImage" />
        <dc:title></dc:title>
      </cc:Work>
    </rdf:RDF>
  </metadata>
  <g
     transform="translate(-47.540095,-81.781589)"
     id="layer1"
     inkscape:groupmode="layer"
     inkscape:label="Layer 1">
    <path
       d="M 136.43877,120.4428 A 38.642835,38.647987 0 0 1 97.795941,159.0908 38.642835,38.647987 0 0 1 59.153105,120.4428 38.642835,38.647987 0 0 1 97.795941,81.794818 38.642835,38.647987 0 0 1 136.43877,120.4428"
       style="fill:#fffefe;fill-opacity:1;stroke:#000000;stroke-width:0.0264582;stroke-linecap:square;stroke-linejoin:miter;stroke-miterlimit:4;stroke-dasharray:none;stroke-opacity:0.692308;paint-order:markers stroke fill"
       id="path825" />
    <path
       d="M 97.750991,81.795103 A 38.650382,38.655535 0 0 0 59.148879,119.54097 h 77.278841 a 38.650382,38.655535 0 0 0 -38.639879,-37.745867 38.650382,38.655535 0 0 0 -0.03682,0 z"
       style="fill:#fe0000;fill-opacity:1;stroke:none;stroke-width:0.555625;stroke-linecap:square;stroke-linejoin:miter;stroke-miterlimit:4;stroke-dasharray:none;stroke-opacity:0.592965;paint-order:markers stroke fill"
       id="path4002" />
    <path
       sodipodi:nodetypes="ccccccccccccccc"
       d="M 97.674935,90.400589 88.201739,111.22119 81.230845,97.833886 c 0,0 -8.773731,21.764304 -9.296373,21.762884 h 2.894639 l 6.584084,-15.53623 7.202986,12.69095 8.984156,-19.636985 9.166513,18.677195 7.47466,-12.5712 7.41207,16.37627 h 2.05653 l -9.20704,-22.278701 -7.1689,13.381781 z"
       style="fill:#ffffff;fill-opacity:0.995951;stroke:none;stroke-width:0.555625;stroke-linecap:square;stroke-linejoin:miter;stroke-miterlimit:4;stroke-dasharray:none;stroke-opacity:0.592965;paint-order:markers stroke fill"
       id="path4009" />
    <path
       sodipodi:nodetypes="sssssscacsssssssccssss"
       id="path3990"
       d="m 52.688004,100.45914 c -1.32265,0.12351 -2.391324,0.38915 -3.266713,0.82162 -0.875389,0.43247 -1.653414,1.18352 -1.837357,2.19039 -0.183939,1.00687 0.234747,1.92322 0.811386,2.65461 1.153245,1.46275 3.075381,2.63324 5.461409,3.93587 1.788412,0.97637 3.830135,1.97426 5.928174,2.97451 0.0037,0.002 0.01123,0.005 0.01123,0.005 0,0 0.196572,-0.97609 0.308667,-1.46108 0.109214,-0.47251 0.354429,-1.41107 0.354429,-1.41107 0,0 -0.0094,-0.004 -0.01408,-0.007 -1.874851,-0.89861 -3.665738,-1.78225 -5.210641,-2.62568 -2.271448,-1.24007 -4.024164,-2.4875 -4.580032,-3.19254 -0.277917,-0.3525 -0.221936,-0.45738 -0.240373,-0.35647 -0.01845,0.10093 -0.102477,0.0618 0.281816,-0.12803 0.768599,-0.37971 3.029222,-0.75461 6.581327,-0.50108 7.104217,0.50706 19.573665,3.20588 31.853006,6.50114 12.279338,3.29527 24.443818,7.1858 36.631048,11.08454 l 0.87677,-2.74027 c -12.1872,-3.89876 -24.39533,-7.80434 -36.762726,-11.12323 -12.367406,-3.3189 -24.816119,-6.05057 -32.393618,-6.59141 -1.894382,-0.13522 -3.471047,-0.15392 -4.793703,-0.0304 z"
       style="color:#000000;font-style:normal;font-variant:normal;font-weight:normal;font-stretch:normal;font-size:medium;line-height:normal;font-family:sans-serif;font-variant-ligatures:normal;font-variant-position:normal;font-variant-caps:normal;font-variant-numeric:normal;font-variant-alternates:normal;font-variant-east-asian:normal;font-feature-settings:normal;font-variation-settings:normal;text-indent:0;text-align:start;text-decoration:none;text-decoration-line:none;text-decoration-style:solid;text-decoration-color:#000000;letter-spacing:normal;word-spacing:normal;text-transform:none;writing-mode:lr-tb;direction:ltr;text-orientation:mixed;dominant-baseline:auto;baseline-shift:baseline;text-anchor:start;white-space:normal;shape-padding:0;shape-margin:0;inline-size:0;clip-rule:nonzero;display:inline;overflow:visible;visibility:visible;opacity:1;isolation:auto;mix-blend-mode:normal;color-interpolation:sRGB;color-interpolation-filters:linearRGB;solid-color:#000000;solid-opacity:1;vector-effect:none;fill:#13007e;fill-opacity:1;fill-rule:nonzero;stroke:none;stroke-width:1.61396;stroke-linecap:butt;stroke-linejoin:miter;stroke-miterlimit:4;stroke-dasharray:none;stroke-dashoffset:0;stroke-opacity:1;color-rendering:auto;image-rendering:auto;shape-rendering:auto;text-rendering:auto;enable-background:accumulate;stop-color:#000000;stop-opacity:1" />
    <path
       d="M 59.165313,121.42911 A 38.642835,38.647987 0 0 0 97.802256,159.42827 38.642835,38.647987 0 0 0 136.4392,121.42911 Z"
       style="fill:#13007e;fill-opacity:1;stroke:none;stroke-width:0.555625;stroke-linecap:square;stroke-linejoin:miter;stroke-miterlimit:4;stroke-dasharray:none;stroke-opacity:0.592965;paint-order:markers stroke fill"
       id="path3994" />
    <path
       sodipodi:nodetypes="ccscsscsscssssscc"
       id="path3986"
       d="m 126.60774,118.20247 -0.83817,2.72348 c 6.85472,3.25502 13.91278,6.33029 16.99855,8.4733 1.04794,0.72779 1.45396,1.22322 1.66697,1.48852 -0.13509,0.0601 -0.1759,0.10267 -0.44115,0.16487 -1.61452,0.37865 -5.21553,0.31717 -9.06775,0.14117 -0.0121,-4.8e-4 -0.0493,-0.002 -0.0493,-0.002 0,0 -0.12497,0.42363 -0.2659,0.86718 -0.087,0.27387 -0.18244,0.54965 -0.25145,0.75502 -0.13693,0.40747 -0.42968,1.21589 -0.42968,1.21589 0,0 0.0102,4.7e-4 0.0153,9.3e-4 4.1374,0.22609 8.08979,0.43606 10.70533,-0.17735 0.71959,-0.1688 1.36118,-0.39358 1.93314,-0.85201 0.57198,-0.45844 1.02564,-1.32824 0.94769,-2.14709 -0.15594,-1.63773 -1.33976,-2.58043 -3.12303,-3.81889 -3.56665,-2.47698 -10.94593,-5.57824 -17.80064,-8.83324 z"
       style="color:#000000;font-style:normal;font-variant:normal;font-weight:normal;font-stretch:normal;font-size:medium;line-height:normal;font-family:sans-serif;font-variant-ligatures:normal;font-variant-position:normal;font-variant-caps:normal;font-variant-numeric:normal;font-variant-alternates:normal;font-variant-east-asian:normal;font-feature-settings:normal;font-variation-settings:normal;text-indent:0;text-align:start;text-decoration:none;text-decoration-line:none;text-decoration-style:solid;text-decoration-color:#000000;letter-spacing:normal;word-spacing:normal;text-transform:none;writing-mode:lr-tb;direction:ltr;text-orientation:mixed;dominant-baseline:auto;baseline-shift:baseline;text-anchor:start;white-space:normal;shape-padding:0;shape-margin:0;inline-size:0;clip-rule:nonzero;display:inline;overflow:visible;visibility:visible;opacity:1;isolation:auto;mix-blend-mode:normal;color-interpolation:sRGB;color-interpolation-filters:linearRGB;solid-color:#000000;solid-opacity:1;vector-effect:none;fill:#fe0000;fill-opacity:1;fill-rule:nonzero;stroke:none;stroke-width:1.61396;stroke-linecap:butt;stroke-linejoin:miter;stroke-miterlimit:4;stroke-dasharray:none;stroke-dashoffset:0;stroke-opacity:1;color-rendering:auto;image-rendering:auto;shape-rendering:auto;text-rendering:auto;enable-background:accumulate;stop-color:#000000;stop-opacity:1" />
    <path
       d="m 88.060984,135.24664 c -0.179238,-0.0822 -0.642631,-0.52489 -0.642631,-0.6141 0,-0.0225 0.116342,-0.0775 0.258523,-0.12246 0.318332,-0.10035 0.690756,-0.34497 0.786196,-0.51639 0.09854,-0.177 0.03579,-0.21411 -0.208587,-0.12352 -0.188607,0.0699 -0.217998,0.0702 -0.31961,0.004 -0.182892,-0.12156 -0.23091,-0.21016 -0.23091,-0.42655 0,-0.17522 0.0273,-0.2324 0.18698,-0.39214 0.142808,-0.14277 0.238866,-0.19479 0.406607,-0.21994 0.425923,-0.0638 0.78746,0.20851 0.786414,0.59252 -3.87e-4,0.19135 -0.191853,0.63967 -0.340888,0.79877 -0.211929,0.22626 0.06122,0.28175 0.31028,0.0631 0.182236,-0.16007 0.276124,-0.17771 0.366448,-0.0688 0.119996,0.14455 0.225142,0.16986 0.401372,0.0961 0.205658,-0.0859 0.213467,-0.17825 0.04347,-0.51368 -0.225042,-0.44417 -0.09373,-0.8265 0.302112,-0.8796 0.156513,-0.021 0.211628,-0.005 0.299118,0.0814 0.0995,0.0995 0.105097,0.13529 0.07746,0.49502 -0.03367,0.43783 -0.1288,0.79752 -0.303287,1.14649 -0.367221,0.73444 -0.759809,0.87942 -1.136476,0.41969 l -0.180639,-0.22048 -0.169167,0.19221 c -0.171644,0.19506 -0.326236,0.29976 -0.439744,0.29785 -0.03442,-9.3e-4 -0.148316,-0.0403 -0.253045,-0.0882 z m -10.572582,0.32802 c -0.665566,-0.10284 -1.258676,-0.41823 -2.043477,-1.08648 -0.248338,-0.21145 -0.550846,-0.596 -0.550846,-0.7002 0,-0.0201 0.16988,-0.14563 0.377493,-0.27879 0.207625,-0.13315 0.456046,-0.32913 0.552054,-0.43542 0.310962,-0.34424 0.326277,-0.41698 0.34644,-1.64501 0.01747,-1.06173 0.01426,-1.11077 -0.08184,-1.24565 -0.05498,-0.0772 -0.192261,-0.1851 -0.305073,-0.23972 -0.290635,-0.14063 -0.566973,-0.1278 -0.929056,0.0437 -0.165977,0.0786 -0.31057,0.14278 -0.321308,0.14278 -0.01069,0 -0.01951,-0.50117 -0.01951,-1.11371 0,-0.86454 0.01372,-1.11896 0.06131,-1.13723 0.124434,-0.0478 0.68151,-0.55586 0.836302,-0.76278 l 0.159792,-0.21359 0.213207,0.14384 c 0.416352,0.28104 0.843876,0.38455 1.133431,0.27445 0.116021,-0.0442 0.122954,-0.0397 0.09348,0.0595 -0.07209,0.24264 -0.34803,0.68127 -0.512166,0.81413 -0.22559,0.18259 -0.578365,0.22051 -0.986445,0.10606 -0.25956,-0.0729 -0.297926,-0.0733 -0.441368,-0.005 -0.148636,0.0706 -0.356939,0.33713 -0.304447,0.38962 0.01337,0.0125 0.07439,-0.004 0.135554,-0.0371 0.0691,-0.0382 0.291357,-0.0622 0.587206,-0.0633 0.55251,-0.002 0.784792,0.0822 0.963318,0.35023 0.107235,0.16096 0.107734,0.17023 0.107734,1.99051 v 1.82875 l -0.23754,0.25118 -0.237542,0.25122 0.368444,0.35699 c 0.60146,0.58275 1.004472,0.75359 1.777701,0.75359 0.73908,0 1.170334,-0.20114 1.349152,-0.62929 0.09524,-0.22804 0.09533,-0.22767 -0.04659,-0.22767 -0.181124,0 -0.395382,0.10713 -0.712372,0.35631 -0.252252,0.19826 -0.306253,0.2216 -0.463992,0.20044 -0.219696,-0.0294 -0.615894,-0.3061 -0.673645,-0.47032 -0.07054,-0.20063 0.09182,-0.46461 0.374363,-0.60859 0.191573,-0.0977 0.320822,-0.12371 0.680232,-0.13707 0.403742,-0.0143 0.467349,-0.005 0.706061,0.11175 0.177579,0.0868 0.303857,0.19117 0.390823,0.32273 0.11326,0.1713 0.128337,0.23987 0.127321,0.57851 -0.0014,0.44884 -0.09909,0.71002 -0.383466,1.02482 -0.396359,0.4388 -0.887697,0.65934 -1.535275,0.68918 -0.226928,0.0107 -0.476859,0.009 -0.555404,-0.004 z m 23.251818,-3.47693 c -0.5763,-0.64265 -0.71158,-0.84078 -0.71192,-1.04261 -3.6e-4,-0.20391 0.17353,-0.35232 0.71379,-0.6092 0.26008,-0.1237 0.52301,-0.28826 0.61882,-0.3874 0.15481,-0.16006 0.16643,-0.19325 0.16406,-0.46714 -0.003,-0.36317 -0.11718,-0.60024 -0.42539,-0.88438 -0.26131,-0.24089 -0.55329,-0.38023 -0.87718,-0.41859 -0.315049,-0.0373 -0.428279,-0.002 -0.712851,0.2231 l -0.242061,0.19136 -0.191822,-0.13903 c -0.105507,-0.0765 -0.299288,-0.1647 -0.430641,-0.19628 -0.788621,-0.18921 -1.282698,0.37903 -1.282698,1.47522 0,0.31814 0.110764,0.77308 0.22636,0.92968 0.156103,0.21149 0.420285,0.32284 0.709132,0.29888 0.299943,-0.0248 0.417551,-0.11586 0.515428,-0.39848 0.05917,-0.17094 0.05737,-0.1873 -0.02192,-0.20069 -0.120566,-0.0203 -0.424864,0.11426 -0.458889,0.20286 -0.06366,0.16595 -0.490169,0.0178 -0.635654,-0.22111 -0.06943,-0.1139 -0.09611,-0.24074 -0.09624,-0.45752 -2.35e-4,-0.41185 0.08597,-0.56016 0.412523,-0.70968 0.471632,-0.21596 0.791757,-0.0809 1.023813,0.432 0.09936,0.21959 0.110568,0.31426 0.110568,0.93467 0,0.57982 -0.01675,0.74366 -0.105168,1.02357 -0.141062,0.447 -0.324606,0.71858 -0.563984,0.83447 -0.505186,0.24459 -0.996415,-0.049 -1.259709,-0.75276 -0.184109,-0.49215 -0.242109,-0.87359 -0.269637,-1.77339 -0.02433,-0.795 -0.01711,-0.92166 0.07341,-1.27942 0.168597,-0.66683 0.529418,-1.2093 1.068197,-1.60598 0.321978,-0.23704 0.249045,-0.24758 1.044249,0.15062 l 0.44107,0.22088 0.495654,-0.28758 c 0.27261,-0.1581 0.51895,-0.27389 0.54742,-0.25717 0.20708,0.12174 1.07212,0.71128 1.15853,0.78967 l 0.10711,0.0971 v 2.15073 2.15075 l -0.14187,0.19587 c -0.1263,0.17432 -0.35407,0.3421 -0.46456,0.3421 -0.022,0 -0.26401,-0.24986 -0.53789,-0.55526 z m 0.8111,-1.47091 c 0,-0.27596 -0.0157,-0.28567 -0.2023,-0.12531 -0.10581,0.0909 -0.10458,0.11212 0.0153,0.26462 0.14597,0.18559 0.18696,0.15508 0.18696,-0.1392 z M 78.535649,132.582 c -0.02622,-0.009 -0.106112,-0.0287 -0.177632,-0.0446 -0.175066,-0.0385 -0.449766,-0.28687 -0.563002,-0.50887 -0.07327,-0.14367 -0.09241,-0.27992 -0.09241,-0.65794 v -0.47682 l 0.122099,0.0463 c 0.236479,0.09 0.650888,0.0553 0.915626,-0.0768 0.300212,-0.14955 0.437939,-0.31394 0.437939,-0.52254 0,-0.15828 -0.100498,-0.30642 -0.207944,-0.30642 -0.03212,0 -0.142024,0.0857 -0.244273,0.19042 -0.225379,0.23084 -0.413986,0.24981 -0.717182,0.072 -0.335111,-0.19641 -0.473164,-0.5976 -0.353675,-1.02777 0.06027,-0.21702 0.211717,-0.35828 0.504922,-0.47098 l 0.232715,-0.0895 -0.187716,-0.0797 c -0.103243,-0.0438 -0.258552,-0.0911 -0.345117,-0.10517 l -0.157386,-0.0255 v -0.34841 c 0,-0.33751 0.0048,-0.35207 0.154695,-0.46465 0.08508,-0.064 0.443892,-0.27783 0.79734,-0.47532 l 0.642626,-0.35907 0.214212,0.12619 c 0.494252,0.29099 0.792006,0.4367 0.894439,0.43772 0.146301,0.001 0.416078,-0.14082 0.714698,-0.37688 l 0.245874,-0.1944 0.285816,0.22199 c 0.361809,0.28102 0.650601,0.36435 0.9511,0.27446 0.116592,-0.0349 0.220757,-0.0547 0.231471,-0.0439 0.04983,0.0499 -0.110318,0.51939 -0.236625,0.69376 -0.157226,0.21707 -0.539938,0.42464 -0.784357,0.4254 -0.08202,2.3e-4 -0.371194,-0.10641 -0.642631,-0.2369 -0.271439,-0.13048 -0.529901,-0.23767 -0.574362,-0.23805 -0.04447,-3.5e-4 -0.205304,0.10285 -0.357439,0.22955 -0.449317,0.37397 -0.427112,0.37058 -0.854734,0.13065 -0.450199,-0.25261 -0.865501,-0.3818 -1.091119,-0.33947 -0.08941,0.016 -0.162591,0.0465 -0.162591,0.0661 0,0.0196 0.118178,0.0757 0.262631,0.12495 0.375511,0.12762 0.406303,0.18364 0.2115,0.38467 l -0.159597,0.1647 h 0.212958 c 0.222312,0 0.346013,0.0615 0.597477,0.29676 l 0.149134,0.13956 0.233635,-0.16791 c 0.128497,-0.0923 0.371994,-0.23332 0.541102,-0.31333 0.417141,-0.19737 0.704117,-0.19375 1.473725,0.0185 0.327262,0.0904 0.686068,0.18751 0.797333,0.21608 l 0.202316,0.0519 v 1.60709 1.60706 l -0.22611,0.17023 c -0.43312,0.32602 -0.382019,0.33183 -0.942884,-0.10748 -0.608883,-0.47686 -0.809294,-0.69295 -0.877449,-0.94612 -0.09722,-0.36109 0.0823,-0.53632 0.809401,-0.79005 0.361705,-0.1262 0.713985,-0.33084 0.748297,-0.43463 0.04404,-0.13333 -1.348089,-0.42497 -1.804291,-0.37808 -0.346183,0.0355 -0.634898,0.15187 -0.754397,0.3038 -0.08763,0.1114 -0.09431,0.19534 -0.09431,1.1831 v 1.06319 L 79.35035,132.382 c -0.08863,0.0886 -0.230551,0.17504 -0.315368,0.19201 -0.158616,0.0317 -0.415083,0.0355 -0.499329,0.007 z m 3.689172,-1.92855 c 0,-0.15704 -0.0183,-0.28566 -0.04065,-0.28566 -0.0723,0 -0.292559,0.23126 -0.292559,0.30719 0,0.0941 0.168507,0.2641 0.261809,0.2641 0.05553,0 0.07139,-0.0634 0.07139,-0.28563 z m 2.070699,1.88784 c -0.228678,-0.1057 -0.587172,-0.50561 -0.752085,-0.83911 -0.139493,-0.2821 -0.153715,-0.35356 -0.168382,-0.84669 -0.01319,-0.44125 0.002,-0.59742 0.0828,-0.86402 0.100338,-0.33038 0.414033,-0.85704 0.579548,-0.97298 0.08722,-0.0611 0.08366,-0.074 -0.08868,-0.32124 -0.09875,-0.1417 -0.256844,-0.29932 -0.351308,-0.35032 l -0.171769,-0.0927 0.462474,-0.34079 c 0.254363,-0.18744 0.617785,-0.48734 0.807609,-0.66642 0.292856,-0.27631 0.357179,-0.31706 0.424689,-0.26909 0.418602,0.29745 0.957801,0.45047 1.240286,0.35199 l 0.145731,-0.0508 -0.08924,0.23487 c -0.313374,0.82485 -0.637304,0.99498 -1.550429,0.8143 -0.280512,-0.0554 -0.494271,-0.0768 -0.52045,-0.0517 -0.05356,0.0512 -0.05947,0.0453 0.227598,0.22611 0.189598,0.11942 0.252162,0.13725 0.350606,0.0998 0.215811,-0.082 0.940612,-0.10872 1.25813,-0.0462 0.693259,0.13636 1.564052,0.79449 1.564052,1.18201 0,0.0649 -0.107111,0.31601 -0.238016,0.55815 -0.130903,0.24215 -0.238006,0.47246 -0.238006,0.51181 0,0.0909 0.363454,0.2478 0.748836,0.32305 0.391228,0.0765 1.034445,0.0403 1.250454,-0.0702 0.496745,-0.25408 0.715435,-0.73509 0.473856,-1.04226 -0.185711,-0.23612 -0.804247,-0.29514 -1.338354,-0.12762 -0.165959,0.052 -0.307115,0.0948 -0.313654,0.0952 -0.0066,3.5e-4 -0.01105,-0.46536 -0.01016,-1.03487 l 0.002,-1.03549 0.216224,-0.16666 c 0.118927,-0.0916 0.359104,-0.31829 0.53373,-0.50368 l 0.317494,-0.33706 0.183382,0.13315 c 0.367797,0.26699 0.862393,0.3883 1.145016,0.28084 l 0.120745,-0.046 -0.09759,0.24826 c -0.196572,0.49997 -0.419058,0.74786 -0.764063,0.85124 -0.161984,0.0485 -0.245333,0.0447 -0.509577,-0.023 -0.476902,-0.12228 -0.590006,-0.10927 -0.763204,0.0881 -0.131794,0.15008 -0.185533,0.26018 -0.127053,0.26018 0.01141,0 0.177383,-0.033 0.368914,-0.0734 0.706313,-0.14902 1.248846,0.10427 1.523443,0.71101 0.09538,0.21074 0.110051,0.31934 0.110051,0.81447 0,0.65601 -0.06323,0.89646 -0.354095,1.34653 -0.406696,0.62933 -0.955,0.97476 -1.69358,1.06695 -0.518238,0.0647 -0.983759,-0.0125 -1.499573,-0.251 -0.54001,-0.24896 -0.533555,-0.2114 -0.17152,-0.99788 l 0.31127,-0.67621 -0.09159,-0.17956 c -0.123328,-0.24177 -0.434635,-0.49962 -0.757542,-0.62746 -0.356136,-0.14099 -1.288826,-0.15596 -1.625385,-0.0258 -0.272871,0.10534 -0.494882,0.33142 -0.58987,0.60068 -0.147513,0.41816 -0.05448,0.71772 0.303318,0.97674 0.193134,0.13975 0.227855,0.14777 0.641817,0.14777 0.522129,0 0.695118,-0.0777 0.695118,-0.31206 0,-0.21057 -0.100266,-0.2163 -0.441961,-0.0251 -0.167759,0.0938 -0.351852,0.17058 -0.409082,0.17058 -0.622535,0 -0.790187,-0.85094 -0.234268,-1.18907 0.495416,-0.3013 1.036827,-0.11532 1.276959,0.43888 0.368464,0.85026 -0.175012,1.88169 -1.036614,1.96739 -0.138192,0.0143 -0.281604,-0.004 -0.368891,-0.0435 z m 19.37369,-0.0246 c -0.60454,-0.27468 -1.08223,-1.48428 -0.92679,-2.34682 0.072,-0.39935 0.24741,-0.71064 0.56316,-0.99925 0.70927,-0.64833 1.29913,-0.72412 3.45819,-0.44437 0.49744,0.0645 0.9205,0.11747 0.94014,0.11764 0.0196,2.5e-4 0.0357,0.71653 0.0357,1.59171 v 1.59124 l -0.12998,0.15454 c -0.153,0.18186 -0.51879,0.42413 -0.64034,0.42413 -0.0513,0 -0.11117,-0.062 -0.15036,-0.15579 -0.0358,-0.0857 -0.2498,-0.32355 -0.47552,-0.52851 -0.43595,-0.39583 -0.68842,-0.78807 -0.62859,-0.9766 0.0422,-0.13297 0.26188,-0.25697 0.76598,-0.43222 0.23708,-0.0824 0.49339,-0.19958 0.56956,-0.26031 l 0.13849,-0.11051 -0.54576,-0.1688 c -0.90229,-0.27924 -0.95442,-0.28936 -1.4978,-0.29063 -1.13009,-0.004 -1.6477,0.29462 -1.78636,1.02585 -0.0873,0.46064 0.14126,0.85024 0.49892,0.85024 0.35723,0 0.33155,-0.26077 -0.0497,-0.50468 -0.22496,-0.14384 -0.25756,-0.18434 -0.25756,-0.31934 0,-0.33021 0.3355,-0.55389 0.83304,-0.55541 0.56784,-0.001 0.93136,0.4257 0.92616,1.08898 -0.005,0.6304 -0.35329,1.07066 -0.9989,1.26242 -0.32121,0.0954 -0.40621,0.0936 -0.6417,-0.0125 z m 3.54678,-1.67124 c 0,-0.22049 -0.0146,-0.27858 -0.065,-0.25922 -0.1548,0.0594 -0.18988,0.32198 -0.0646,0.48386 0.092,0.11889 0.12959,0.0538 0.12959,-0.22464 z m 3.28019,1.68853 c -0.73552,-0.1467 -1.4127,-0.653 -1.75613,-1.3132 -0.10989,-0.21125 -0.19251,-0.39119 -0.1836,-0.39987 0.009,-0.009 0.20832,-0.0613 0.44314,-0.11693 0.4695,-0.11122 0.72919,-0.24311 0.96747,-0.49112 0.17408,-0.1812 0.15936,-0.21726 -0.12816,-0.31413 -0.21766,-0.0733 -0.53976,-0.0676 -0.88544,0.016 -0.49686,0.11996 -0.45222,0.21528 -0.45222,-0.96525 v -1.03759 l 0.23959,-0.18274 c 0.13177,-0.10053 0.36865,-0.3236 0.5264,-0.49577 0.24604,-0.26856 0.29825,-0.30492 0.36733,-0.2559 0.42038,0.29831 1.01796,0.46602 1.23898,0.34772 0.15008,-0.0804 0.1352,0.0143 -0.0656,0.41538 -0.2786,0.55696 -0.60364,0.73948 -1.11479,0.62601 -0.6226,-0.13814 -0.77617,-0.10534 -0.93389,0.19963 -0.0736,0.14224 -0.0731,0.14759 0.0109,0.11426 0.0485,-0.0192 0.24285,-0.0672 0.43197,-0.10642 0.81845,-0.16968 1.39362,0.21721 1.39362,0.93739 0,0.3231 -0.0509,0.44793 -0.36183,0.88721 l -0.20707,0.29255 0.21659,0.19967 c 0.35091,0.32352 0.57715,0.40205 1.16348,0.40387 0.48507,0.001 0.51376,-0.004 0.86298,-0.17664 0.43987,-0.2171 0.70596,-0.48755 0.70596,-0.71751 0,-0.49124 -1.02776,-0.76892 -1.77895,-0.48061 -0.0701,0.0269 -0.0775,-0.0676 -0.0775,-0.99245 v -1.02221 l 0.19002,-0.13172 c 0.10451,-0.0724 0.35203,-0.30129 0.55003,-0.50855 l 0.36,-0.37688 0.28281,0.18888 c 0.43207,0.28856 0.75319,0.3559 1.05879,0.22202 0.0804,-0.0353 0.08,-0.0234 -0.007,0.2063 -0.2908,0.76542 -0.66493,1.01671 -1.25729,0.84447 -0.38955,-0.11318 -0.52886,-0.0996 -0.72325,0.0711 -0.2324,0.20409 -0.22741,0.30123 0.0103,0.19933 0.27909,-0.1196 0.89001,-0.10766 1.13784,0.0225 0.4251,0.22309 0.62847,0.6269 0.66988,1.33004 0.0225,0.38339 0.0103,0.48782 -0.0989,0.83787 -0.13871,0.44492 -0.48278,1.01487 -0.75838,1.2562 -0.53735,0.47053 -1.22742,0.62874 -2.03778,0.46721 z m 5.31209,-0.0235 c -0.0166,-0.0522 -0.21466,-0.24705 -0.44019,-0.43296 -0.55778,-0.45974 -0.72615,-0.69349 -0.72615,-1.00809 0,-0.21181 0.1532,-0.35189 0.66281,-0.60614 0.66734,-0.33294 0.86142,-0.53316 0.85942,-0.88662 -0.002,-0.44811 -0.48575,-1.01966 -1.13244,-1.33949 -0.31723,-0.15685 -0.4104,-0.18033 -0.77351,-0.19477 -0.3125,-0.0125 -0.44908,0.002 -0.56198,0.0608 -0.1465,0.0757 -0.14914,0.0752 -0.14914,-0.0337 0,-0.10784 0.46888,-0.53124 1.15747,-1.04532 l 0.23809,-0.17771 0.14716,0.0882 c 0.081,0.0485 0.33995,0.20084 0.57558,0.3385 0.23563,0.1376 0.51946,0.31287 0.63073,0.38937 l 0.20231,0.13903 v 2.16225 2.16224 l -0.14987,0.17076 c -0.14252,0.16238 -0.3622,0.30867 -0.46338,0.30867 -0.0258,0 -0.0603,-0.0428 -0.0769,-0.095 z m 0.35359,-1.96728 c 0.003,-0.11782 -0.0119,-0.13226 -0.12276,-0.11907 -0.0694,0.009 -0.14968,0.0538 -0.1785,0.10124 -0.0432,0.0711 -0.0279,0.10749 0.0878,0.20805 0.13163,0.11443 0.14233,0.11639 0.17515,0.0328 0.0192,-0.049 0.0365,-0.14937 0.0383,-0.22311 z m 2.62194,1.92685 c -0.0815,-0.0745 -0.2917,-0.19373 -0.46706,-0.26503 -0.472,-0.1919 -0.67119,-0.33864 -0.77341,-0.56976 -0.0856,-0.19351 -0.21734,-0.87316 -0.17706,-0.91343 0.0107,-0.0107 0.20005,-0.0537 0.42076,-0.0955 0.47053,-0.0891 1.15167,-0.33976 1.12678,-0.41446 -0.0298,-0.0895 -0.57317,-0.36381 -0.78288,-0.39536 -0.14151,-0.0212 -0.28455,-0.001 -0.48793,0.067 l -0.28773,0.0971 v -0.84281 -0.84279 l 0.1309,-0.0829 c 0.072,-0.0456 0.59461,-0.36234 1.16136,-0.70393 l 1.03045,-0.62109 0.30241,0.0763 c 1.57913,0.39822 2.23826,0.94327 2.24312,1.85488 10e-4,0.27214 -0.0223,0.38285 -0.12615,0.58698 -0.42195,0.82972 -1.27593,1.0557 -1.89062,0.50029 -0.21868,-0.19758 -0.29813,-0.41441 -0.25565,-0.69772 0.0672,-0.44805 0.35599,-0.68305 0.78061,-0.63517 0.26649,0.0301 0.36052,0.13832 0.40389,0.46536 0.0642,0.48422 0.46386,0.67868 0.51389,0.25008 0.0312,-0.2674 -0.008,-0.3907 -0.17621,-0.5593 -0.19545,-0.19548 -0.5138,-0.34458 -0.99611,-0.46657 -0.31686,-0.0802 -0.47925,-0.0923 -0.95452,-0.072 -0.65459,0.0282 -1.03053,0.12762 -1.41704,0.37517 l -0.24949,0.15971 0.42791,0.0258 c 0.47411,0.0287 0.77047,0.13511 0.98724,0.35449 0.12644,0.12798 0.1309,0.14991 0.1309,0.64355 v 0.51107 l 0.27977,0.0317 c 0.32181,0.0364 0.38714,0.0927 0.49928,0.43005 0.10639,0.32013 0.23306,0.44046 0.53463,0.50796 0.2178,0.0487 0.28391,0.0451 0.46905,-0.0255 0.29021,-0.11086 0.58866,-0.41208 0.85754,-0.86555 l 0.22278,-0.3757 -0.0164,0.69032 c -0.0155,0.65678 -0.0236,0.70565 -0.16474,1.00565 -0.30008,0.63778 -0.67643,0.91874 -1.2338,0.92108 -0.29355,9.4e-4 -0.36704,-0.0178 -0.57062,-0.14313 -0.18192,-0.11247 -0.26809,-0.21097 -0.38899,-0.44454 -0.14618,-0.28243 -0.1553,-0.32915 -0.1553,-0.79577 v -0.49574 h -0.1666 -0.16662 v 0.71318 c 0,0.54637 -0.0181,0.75825 -0.0771,0.90594 -0.1257,0.31421 -0.3065,0.36426 -0.54123,0.1499 z m 0.1643,-1.51147 c 0.0181,-0.12032 0.0212,-0.23024 0.007,-0.24445 -0.0543,-0.0544 -0.31451,0.0957 -0.31451,0.18131 0,0.0831 0.17042,0.28174 0.24158,0.28174 0.0182,0 0.048,-0.0984 0.066,-0.2186 z m -25.911791,1.54559 c -0.647865,-0.10766 -1.277015,-0.5894 -1.59539,-1.2217 -0.09442,-0.18752 -0.17168,-0.3502 -0.17168,-0.36152 0,-0.0107 0.249206,-0.0991 0.553783,-0.19502 0.474503,-0.14936 0.585245,-0.20426 0.773537,-0.38272 0.214084,-0.20291 0.217295,-0.21017 0.12454,-0.28122 -0.162341,-0.12441 -0.588908,-0.26551 -0.799121,-0.26441 -0.110282,9.5e-4 -0.293903,0.0435 -0.40803,0.0952 -0.114132,0.0519 -0.215882,0.0941 -0.226114,0.0941 -0.01016,0 -0.01862,-0.38274 -0.01862,-0.85053 v -0.85054 l 0.702136,-0.47123 c 0.386168,-0.25916 0.905629,-0.57355 1.154351,-0.69861 l 0.452224,-0.22737 0.404616,0.10196 c 0.925547,0.23337 1.737583,0.74076 2.014246,1.25853 0.163071,0.30521 0.142291,0.7813 -0.05129,1.17456 -0.165353,0.33592 -0.405823,0.61216 -0.64421,0.74001 -0.379091,0.20333 -1.121524,0.0403 -1.323221,-0.29048 -0.108305,-0.17771 -0.120228,-0.54876 -0.02358,-0.73378 0.212127,-0.40611 0.750123,-0.62041 0.980095,-0.39041 0.07154,0.0715 0.09521,0.15864 0.09521,0.35064 0,0.18632 0.02668,0.28937 0.09866,0.38086 0.123436,0.15685 0.2105,0.15881 0.310198,0.007 0.269807,-0.41184 -0.446465,-1.09603 -1.34725,-1.28693 -0.419385,-0.0889 -1.017644,-0.0886 -1.360294,9.5e-4 -0.247442,0.0645 -0.80984,0.32362 -0.985866,0.45429 -0.05427,0.0403 -0.01675,0.0458 0.155978,0.0226 0.741791,-0.0989 1.414884,0.40033 1.414884,1.04937 0,0.22422 -0.02834,0.29233 -0.283307,0.68067 l -0.283311,0.43151 0.184019,0.1458 c 0.477455,0.3782 1.161606,0.52666 1.661642,0.36055 0.340892,-0.11318 0.754807,-0.43283 1.106529,-0.85436 0.16455,-0.19721 0.307328,-0.35042 0.317282,-0.34046 0.04602,0.0462 -0.152468,0.66157 -0.330918,1.02612 -0.510671,1.04321 -1.47005,1.52329 -2.651767,1.32699 z m 17.749171,-1.64835 c -0.3953,-0.20234 -0.40287,-0.24997 -0.0895,-0.56336 l 0.26611,-0.26613 0.22419,0.1581 c 0.20323,0.14331 0.25624,0.1581 0.56659,0.15881 0.1883,4e-4 0.39059,-0.016 0.44953,-0.0381 0.10048,-0.0365 0.10411,-0.031 0.0583,0.0895 -0.15008,0.39479 -0.45634,0.58934 -0.93047,0.59106 -0.22291,9.4e-4 -0.34745,-0.0289 -0.54474,-0.12994 z m -7.69836,-2.22518 -0.29688,-0.14331 -9.5e-4,-0.34275 c -3.9e-4,-0.33116 0.005,-0.3467 0.15409,-0.46017 0.0851,-0.0645 0.43318,-0.27688 0.77354,-0.47178 l 0.61883,-0.35431 0.52756,0.2789 c 0.29015,0.15347 0.56398,0.27892 0.60851,0.27892 0.11797,0 0.49782,-0.20299 0.74024,-0.39558 l 0.21024,-0.16702 0.24198,0.17875 c 0.46245,0.34157 0.75495,0.42055 1.08692,0.29348 0.11863,-0.0455 0.13089,-0.0401 0.13066,0.0558 -9.5e-4,0.50174 -0.51571,1.0303 -1.00568,1.03326 -0.11134,9.4e-4 -0.34866,-0.0834 -0.66643,-0.2363 -0.27145,-0.13047 -0.52768,-0.23767 -0.56943,-0.23804 -0.0417,-3.8e-4 -0.19804,0.10623 -0.34732,0.23685 -0.42799,0.37458 -0.38682,0.37126 -0.95734,0.0774 -0.54077,-0.27862 -0.88956,-0.36435 -1.07605,-0.26454 -0.10231,0.0547 -0.0902,0.0649 0.21006,0.17593 0.17527,0.0647 0.31866,0.14313 0.31866,0.17397 0,0.0308 -0.091,0.14117 -0.20231,0.24503 l -0.20231,0.18894 -0.29688,-0.14331 z m 0.49523,-2.38887 c -0.0175,-0.0178 -0.0317,-0.0813 -0.0317,-0.1417 0,-0.12495 -0.12499,-0.21792 -0.40462,-0.30093 -0.10472,-0.031 -0.21783,-0.0652 -0.25136,-0.0757 -0.15398,-0.0487 0.37673,-0.79219 0.78274,-1.09665 0.33715,-0.25282 0.61302,-0.35325 0.96467,-0.3512 0.36581,0.002 0.67289,0.12103 1.1368,0.44037 0.41144,0.28316 0.49485,0.30911 0.69707,0.21696 0.2747,-0.12513 0.0393,-0.3983 -0.46869,-0.5438 -0.1805,-0.0517 -0.31451,-0.11657 -0.31451,-0.15205 0,-0.10124 0.1727,-0.40741 0.29288,-0.51922 0.22955,-0.21354 0.55007,-0.26175 0.83652,-0.12584 0.32645,0.15489 0.44851,0.7264 0.24496,1.14693 -0.14209,0.29357 -0.50668,0.64107 -0.85544,0.81538 -0.4248,0.2123 -0.74585,0.20574 -1.25675,-0.0257 -0.66029,-0.29908 -0.96826,-0.39317 -1.1326,-0.34603 -0.24289,0.0697 -0.25148,0.12299 -0.0375,0.2321 0.20153,0.10284 0.39583,0.35066 0.373,0.47577 -0.0148,0.0809 -0.39652,0.38311 -0.48397,0.38311 -0.0329,0 -0.074,-0.0143 -0.0915,-0.0317 z m -4.210172,-0.17806 c -0.263525,-0.0861 -0.505907,-0.2732 -0.664341,-0.51263 -0.178271,-0.26944 -0.183829,-0.73107 -0.01248,-1.03724 0.286721,-0.51236 0.888319,-0.58987 1.118779,-0.1442 0.133149,0.25751 0.0856,0.48862 -0.122687,0.59633 -0.177311,0.0918 -0.383071,0.088 -0.589407,-0.0107 -0.209379,-0.0998 -0.267318,-0.0519 -0.122901,0.10195 0.325933,0.34699 1.627359,0.25429 1.881759,-0.13404 0.0686,-0.10463 0.0706,-0.13885 0.0153,-0.25439 -0.0359,-0.075 -0.14709,-0.17272 -0.25372,-0.22314 -0.10442,-0.0494 -0.26305,-0.12424 -0.35248,-0.16666 -0.21559,-0.10195 -0.274353,-0.20304 -0.21633,-0.37198 0.049,-0.14259 0.38652,-0.34768 0.57239,-0.34768 0.14821,0 0.40526,0.18908 0.51801,0.38103 0.14297,0.2434 0.1381,0.97642 -0.009,1.29573 -0.14498,0.31558 -0.44881,0.62719 -0.72916,0.74781 -0.30564,0.13154 -0.766467,0.16683 -1.034208,0.0793 z m 29.827592,11.59011 -4.09192,-1.87393 0.3681,-0.80399 3.49946,-0.42353 -2.73261,-1.25141 0.35148,-0.7677 4.09193,1.87395 -0.3796,0.82909 -3.42376,0.42782 2.6684,1.22202 z m -4.5308,3.15179 q -0.58157,-0.36699 -0.86646,-0.79 -0.20887,-0.31333 -0.29906,-0.68246 -0.0886,-0.37173 -0.0315,-0.70964 0.0738,-0.45076 0.36708,-0.91557 0.53077,-0.84131 1.37043,-1.01574 0.8413,-0.177 1.77078,0.40949 0.92169,0.58163 1.12738,1.41211 0.2031,0.82883 -0.32603,1.66754 -0.53568,0.84912 -1.36851,1.02423 -0.83543,0.17343 -1.74414,-0.39996 z m 0.47368,-0.80836 q 0.64648,0.40797 1.1698,0.3207 0.52071,-0.0889 0.81067,-0.54851 0.28996,-0.45962 0.14534,-0.96111 -0.14557,-0.50573 -0.80764,-0.92352 -0.65427,-0.41287 -1.15804,-0.32781 -0.50215,0.0825 -0.80193,0.55766 -0.29979,0.4752 -0.15612,0.97246 0.14106,0.49563 0.79793,0.91013 z m 0.39817,3.22763 -3.56801,-2.74334 0.55383,-0.72051 3.56802,2.74334 z m -1.81942,2.1317 -2.77872,-2.50236 -0.89358,0.99254 -0.56578,-0.50951 2.39314,-2.65816 0.56579,0.50951 -0.89153,0.99026 2.77872,2.50235 z m -0.65382,0.80901 -0.73857,0.65712 -0.97306,-0.50271 -1.34411,1.19586 0.40192,1.01083 -0.72022,0.64078 -1.68156,-4.52827 0.71793,-0.63874 z m -2.43352,-0.21835 -1.57332,-0.83571 0.65584,1.652 z m -4.89701,5.943 -2.51931,-3.72981 1.12693,-0.76139 2.39515,2.08703 -1.04944,-2.99622 1.12947,-0.76311 2.5193,3.72979 -0.69956,0.47265 -1.98313,-2.936 1.24287,3.43616 -0.725,0.48983 -2.72086,-2.43758 1.98314,2.936 z m -4.05887,2.02029 -1.97238,-4.04582 1.7191,-0.8383 q 0.64846,-0.31622 0.99477,-0.34847 0.34773,-0.0364 0.66022,0.15632 0.31249,0.19261 0.48739,0.55138 0.222,0.45536 0.0996,0.88395 -0.12371,0.42581 -0.6186,0.7628 0.34024,0.0253 0.60147,0.12691 0.26399,0.10017 0.78655,0.42941 l 0.87872,0.54844 -0.97683,0.47634 -1.01969,-0.59242 q -0.54464,-0.31852 -0.71974,-0.38343 -0.17643,-0.0677 -0.32765,-0.0487 -0.15256,0.016 -0.43402,0.15365 l -0.16557,0.0807 0.8234,1.68897 z m -0.32144,-2.73307 0.60431,-0.29467 q 0.58775,-0.28662 0.70978,-0.40761 0.12202,-0.12103 0.14562,-0.28278 0.0236,-0.16185 -0.0652,-0.34396 -0.0995,-0.20422 -0.27048,-0.27459 -0.16951,-0.0745 -0.38433,-0.0107 -0.10606,0.0348 -0.60275,0.27685 l -0.63743,0.31084 z m -5.17498,2.29495 q -0.21717,-0.65255 -0.16938,-1.16032 0.0371,-0.37477 0.20127,-0.71743 0.16713,-0.34364 0.42546,-0.56878 0.34283,-0.3018 0.86422,-0.47536 0.94376,-0.31415 1.70371,0.0832 0.76287,0.39647 1.10995,1.43942 0.34417,1.03419 -0.0232,1.80687 -0.36827,0.76977 -1.30912,1.08296 -0.95249,0.31708 -1.70759,-0.0756 -0.75608,-0.39551 -1.0954,-1.41512 z m 0.87871,-0.32487 q 0.24141,0.7254 0.70144,0.98969 0.45907,0.26139 0.97464,0.0898 0.51557,-0.17165 0.7216,-0.65116 0.20796,-0.48344 -0.0393,-1.2263 -0.24432,-0.73412 -0.68786,-0.98774 -0.44063,-0.25457 -0.97367,-0.0772 -0.53305,0.17753 -0.73713,0.6531 -0.20504,0.47276 0.0402,1.2098 z m -3.7621,3.16225 -0.89361,-4.41149 3.02384,-0.61268 0.15116,0.74627 -2.13324,0.43225 0.21152,1.04419 1.84139,-0.3731 0.15116,0.74627 -1.84138,0.3731 0.37975,1.87474 z m -4.519128,0.44966 -0.370536,-4.48582 0.881136,-0.0727 2.083148,2.84398 -0.24744,-2.99564 0.84136,-0.0695 0.37053,4.48582 -0.90867,0.075 -2.049796,-2.77587 0.241636,2.92528 z m -1.78337,-0.0324 0.0314,-4.50099 0.908674,0.007 -0.0314,4.50099 z m -5.524618,-0.52511 0.616945,-4.45862 3.056146,0.42299 -0.104366,0.75426 -2.156029,-0.29842 -0.146034,1.05535 1.861059,0.2576 -0.104366,0.75424 -1.861059,-0.25758 -0.262181,1.89475 z m -4.356512,-3.37103 q 0.177151,-0.66454 0.496094,-1.06249 0.236889,-0.29273 0.562375,-0.48875 0.328457,-0.19521 0.66799,-0.24132 0.452256,-0.0636 0.983226,0.0779 0.961086,0.25626 1.377594,1.00601 0.419474,0.75055 0.136357,1.81264 -0.280747,1.05317 -1.012203,1.49682 -0.730667,0.44069 -1.688789,0.18521 -0.969984,-0.25863 -1.385106,-1.00166 -0.414329,-0.74598 -0.137533,-1.78433 z m 0.912631,0.21156 q -0.196916,0.73872 0.0422,1.21238 0.2399,0.47069 0.764934,0.6107 0.525038,0.13993 0.960668,-0.1474 0.439386,-0.28958 0.641051,-1.0461 0.199286,-0.74761 -0.03192,-1.20328 -0.228231,-0.45487 -0.771064,-0.59961 -0.542834,-0.14473 -0.97471,0.14046 -0.431078,0.28225 -0.631163,1.03283 z m -5.607716,0.20505 0.797259,-1.71841 -0.398362,-3.05855 0.966302,0.44845 0.211288,2.06121 1.690688,-1.17855 0.949602,0.44069 -2.6006,1.67355 -0.79468,1.71284 z m -4.771118,-2.70763 2.363451,-3.83049 1.627611,1.00451 q 0.613942,0.37892 0.826385,0.65436 0.216664,0.27442 0.221036,0.64152 0.0043,0.36709 -0.20521,0.70677 -0.266007,0.43112 -0.69354,0.55691 -0.42592,0.12316 -0.975279,-0.11479 0.160523,0.3011 0.214485,0.57613 0.05657,0.27666 0.05781,0.89436 l 0.0066,1.0359 -0.924834,-0.57077 -0.0448,-1.17857 q -0.02217,-0.63061 -0.06093,-0.81329 -0.03716,-0.1853 -0.134164,-0.30289 -0.09538,-0.12014 -0.361857,-0.28467 l -0.156763,-0.0968 -0.986653,1.59908 z m 2.137209,-1.73323 0.572146,0.35312 q 0.556471,0.34342 0.723953,0.38185 0.167492,0.0385 0.316796,-0.0282 0.149313,-0.0667 0.255716,-0.23905 0.119301,-0.19336 0.08735,-0.37541 -0.02773,-0.18308 -0.196486,-0.33054 -0.08599,-0.0711 -0.556246,-0.36134 l -0.603497,-0.37246 z m -4.38559,0.004 2.321676,-2.93146 -1.046808,-0.82928 0.472721,-0.59688 2.803532,2.22096 -0.472726,0.59686 -1.044402,-0.82737 -2.321684,2.93146 z m -2.940346,-4.75204 0.686682,0.56359 q -0.257848,0.37158 -0.233563,0.6907 0.02645,0.32128 0.319888,0.61399 0.310818,0.31006 0.597391,0.33576 0.290913,0.0257 0.466521,-0.15044 0.112742,-0.113 0.123399,-0.25852 0.01497,-0.14545 -0.09164,-0.36895 -0.074,-0.15186 -0.376379,-0.65302 -0.38939,-0.64429 -0.411605,-1.03941 -0.03108,-0.55575 0.34613,-0.93398 0.242817,-0.24348 0.590046,-0.31774 0.351566,-0.0743 0.720784,0.0729 0.371395,0.14937 0.738722,0.51577 0.599895,0.59844 0.639688,1.16287 0.04197,0.5666 -0.380746,1.02089 l -0.671551,-0.61355 q 0.203683,-0.28685 0.172981,-0.52996 -0.02636,-0.24312 -0.298053,-0.51416 -0.280383,-0.2797 -0.553957,-0.32278 -0.175868,-0.028 -0.299442,0.0959 -0.112743,0.11301 -0.09731,0.28888 0.0198,0.22359 0.378737,0.80281 0.358914,0.57921 0.463549,0.9221 0.108982,0.34289 0.0291,0.67517 -0.07555,0.33226 -0.376905,0.63442 -0.273163,0.27391 -0.663792,0.36125 -0.390626,0.0873 -0.78591,-0.0729 -0.393115,-0.16238 -0.80826,-0.57646 -0.604244,-0.60279 -0.650601,-1.20411 -0.04418,-0.6035 0.426109,-1.20114 z m -2.008272,-0.16185 3.432206,-2.91151 0.58778,0.6931 -3.432206,2.9115 z m -2.682629,-3.62021 3.673747,-2.59998 0.510709,0.7218 -1.389369,3.24007 2.453341,-1.73627 0.48766,0.68921 -3.67375,2.6 -0.526668,-0.74437 1.347689,-3.17672 -2.395705,1.6955 z m -0.881085,-1.55097 3.887676,-2.26759 0.457788,0.78506 -3.887672,2.2676 z m -2.291557,-4.69758 4.092407,-1.8729 0.565884,1.23682 -2.451763,2.02022 3.1275,-0.54329 0.567162,1.2396 -4.092407,1.8729 -0.35128,-0.76777 3.22144,-1.47431 -3.593161,0.66186 -0.364055,-0.79568 2.850998,-2.28397 -3.22144,1.47429 z"
       style="fill:#fffeff;fill-opacity:1;stroke-width:0.264582"
       id="path860-1" />
  </g>
</svg>
