<svg xmlns="http://www.w3.org/2000/svg" version="1.1" xmlns:xlink="http://www.w3.org/1999/xlink" xmlns:svgjs="http://svgjs.dev/svgjs" width="1500" height="1500" viewBox="0 0 1500 1500"><rect width="1500" height="1500" fill="#929395"></rect><g transform="matrix(0.6666666666666666,0,0,0.6666666666666666,249.39393939393938,650.6669587295813)"><svg viewBox="0 0 396 79" data-background-color="#929395" preserveAspectRatio="xMidYMid meet" height="299" width="1500" xmlns="http://www.w3.org/2000/svg" xmlns:xlink="http://www.w3.org/1999/xlink"><g id="tight-bounds" transform="matrix(1,0,0,1,0.2400000000000091,-0.13222277409826688)"><svg viewBox="0 0 395.52 79.26444554819653" height="79.26444554819653" width="395.52"><g><svg viewBox="0 0 546.8331257277393 109.5884519574143" height="79.26444554819653" width="395.52"><g><rect width="6.778798472124741" height="109.5884519574143" x="126.78878151706814" y="0" fill="#375a82" opacity="1" stroke-width="0" stroke="transparent" fill-opacity="1" class="rect-yte-0" data-fill-palette-color="primary" rx="1%" id="yte-0" data-palette-color="#375a82"></rect></g><g transform="matrix(1,0,0,1,151.31312572773933,0.272608089446301)"><svg viewBox="0 0 395.52 109.0432357785217" height="109.0432357785217" width="395.52"><g id="textblocktransform"><svg viewBox="0 0 395.52 109.0432357785217" height="109.0432357785217" width="395.52" id="textblock"><g><svg viewBox="0 0 395.52 75.1687835211815" height="75.1687835211815" width="395.52"><g transform="matrix(1,0,0,1,0,0)"><svg width="395.52" viewBox="2.86 -35.82 188.44 35.82" height="75.1687835211815" data-palette-color="#375a82"><path d="M13.65 0L2.86 0 2.86-32.4 13.65-32.4 13.65 0ZM23.46-25.93L15.36-25.93 15.36-32.4 27.69-32.4 34.18-25.93 34.18-16.21 29.2-11.23 28.86-11.91 18.73-10.57 19.12-9.72 15.36-9.72 15.36-15.99 23.46-15.99 23.46-25.93ZM29.2-11.23L35.28 0 23.75 0 19.12-9.72 27.69-9.72 29.2-11.23ZM67.72-19.46L67.72-6.47 61.25 0 54.03 0 54.03-6.05 56.71-6.05 56.71-19.46 54.03-19.46 54.03-25.93 61.25-25.93 67.72-19.46ZM49.51-19.46L49.51-6.05 52.32-6.05 52.32 0 45.07 0 38.6-6.47 38.6-19.46 45.07-25.93 52.32-25.93 52.32-19.46 49.51-19.46ZM83.37-35.82L83.37 0 72.58 0 72.58-35.82 83.37-35.82ZM101.19-25.9L85.05-3.66 85.05-18.46 90.03-25.88 101.19-25.9ZM94.62-13.82L101.75 0 90.03 0 88.25-5.22 94.62-13.82ZM115.47 0L104.88 0 104.88-32.4 115.47-32.4 115.47 0ZM125.02-25.93L117.18-25.93 117.18-32.4 129.29-32.4 135.76-25.93 135.76-14.82 129.29-8.33 117.18-8.33 117.18-14.82 125.02-14.82 125.02-25.93ZM150.77-25.93L150.77 0 146.45 0 139.98-6.47 139.98-19.46 146.45-25.93 150.77-25.93ZM168.11-10.4L152.48-10.4 152.48-14.92 158.17-14.92 158.17-19.46 152.48-19.46 152.48-25.93 161.64-25.93 168.11-19.46 168.11-10.4ZM163.76 0L152.48 0 152.48-6.05 166.98-6.05 166.98-3.25 163.76 0ZM183.78-32.4L183.78-6.47 190.91-6.47 190.91 0 179.48 0 172.99-6.47 172.99-19.46 170.84-19.46 170.84-25.93 172.99-25.93 172.99-28.74 183.78-32.4ZM191.3-19.46L185.49-19.46 185.49-25.93 191.3-25.93 191.3-19.46Z" opacity="1" transform="matrix(1,0,0,1,0,0)" fill="#375a82" class="wordmark-text-0" data-fill-palette-color="primary" id="text-0"></path></svg></g></svg></g><g transform="matrix(1,0,0,1,0,92.91432925972794)"><svg viewBox="0 0 232.209792 16.12890651879377" height="16.12890651879377" width="232.209792"><g transform="matrix(1,0,0,1,0,0)"><svg width="232.209792" viewBox="0.61 -41.5 683.24 47.46" height="16.12890651879377" data-palette-color="#375a82"><path d="M0.61 1.25L16.65-39.45 21.36-39.45 37.4 1.25 32.3 1.25 27.76-10.69 10.25-10.69 5.71 1.25 0.61 1.25ZM11.62-14.55L26.42-14.55 22.17-25.76Q19.85-31.71 19.12-34.74L19.12-34.74 18.92-34.74Q18.19-31.88 15.87-25.76L15.87-25.76 11.62-14.55ZM43.48-2.91L43.48-41.5 48.07-41.5 48.07-3.44Q48.07-2.49 48.97-2.49L48.97-2.49 52.88-2.49 52.37 1.25 47.73 1.25Q43.48 1.25 43.48-2.91L43.48-2.91ZM59.98-2.91L59.98-41.5 64.57-41.5 64.57-3.44Q64.57-2.49 65.47-2.49L65.47-2.49 69.38-2.49 68.87 1.25 64.23 1.25Q59.98 1.25 59.98-2.91L59.98-2.91ZM92.52 1.25L92.52-39.26 97.06-39.26 97.06-21.7 119.28-21.7 119.28-39.26 123.82-39.26 123.82 1.25 119.28 1.25 119.28-17.8 97.06-17.8 97.06 1.25 92.52 1.25ZM145.72-29L145.72-29Q151.75-29 155.92-24.9L155.92-24.9Q160.34-20.58 160.34-13.53L160.34-13.53Q160.34-9.4 158.83-6.1L158.83-6.1Q156.87-1.88 152.89 0.29L152.89 0.29Q149.6 2.1 145.62 2.1L145.62 2.1Q138.44 2.1 134.24-3.2L134.24-3.2Q130.94-7.35 130.94-13.53L130.94-13.53Q130.94-21.58 136.56-25.95L136.56-25.95Q140.49-29 145.72-29ZM145.59-25.24L145.59-25.24Q141.13-25.24 138.22-21.53L138.22-21.53Q135.71-18.33 135.71-13.45L135.71-13.45Q135.71-9.99 137-7.32L137-7.32Q138.22-4.76 140.44-3.3L140.44-3.3Q142.79-1.76 145.67-1.76L145.67-1.76Q149.16-1.76 151.82-4.03L151.82-4.03Q155.58-7.28 155.58-13.48L155.58-13.48Q155.58-18.73 152.67-22.02L152.67-22.02Q149.82-25.24 145.59-25.24ZM165.15-2.29L167.59-5.76Q172.13-2 177.82-2L177.82-2Q184.38-2 184.38-6.35L184.38-6.35Q184.38-8.35 182.14-9.77L182.14-9.77Q180.7-10.67 177.65-11.74L177.65-11.74 175.11-12.65Q170.88-14.14 168.98-15.7L168.98-15.7Q166.64-17.63 166.64-20.9L166.64-20.9Q166.64-24.8 169.98-27.1L169.98-27.1Q172.74-29 176.89-29L176.89-29Q182.94-29 188.05-25.49L188.05-25.49 185.7-22Q181.63-25.1 177.13-25.1L177.13-25.1Q175.13-25.1 173.74-24.37L173.74-24.37Q171.52-23.24 171.52-21.02L171.52-21.02Q171.52-19.26 173.08-18.26L173.08-18.26Q174.06-17.63 177.5-16.36L177.5-16.36 180.6-15.21Q184.82-13.62 186.87-11.84L186.87-11.84Q189.39-9.67 189.39-6.45L189.39-6.45Q189.39-2.25 185.73 0.2L185.73 0.2Q182.92 2.05 177.48 2.05L177.48 2.05Q170.52 2.05 165.15-2.29L165.15-2.29ZM196.96-28.25L201.25-28.25 201.25-24Q203.13-26.22 205.65-27.49L205.65-27.49Q208.5-28.96 211.55-28.96L211.55-28.96Q217.9-28.96 221.66-24.71L221.66-24.71Q225.06-20.87 225.06-14.48L225.06-14.48Q225.06-8.79 222.42-5.1L222.42-5.1Q218.73 0.05 211.68 0.05L211.68 0.05Q207.72 0.05 204.65-2L204.65-2Q202.77-3.3 201.5-5.3L201.5-5.3 201.5 5.96 196.96 5.96 196.96-28.25ZM201.5-19.14L201.5-10.11Q205.11-3.76 210.94-3.76L210.94-3.76Q215.88-3.76 218.39-7.5L218.39-7.5Q220.25-10.23 220.25-14.55L220.25-14.55Q220.25-19.12 218.12-21.88L218.12-21.88Q215.58-25.15 210.77-25.15L210.77-25.15Q208.14-25.15 205.74-23.73L205.74-23.73Q203.11-22.17 201.5-19.14L201.5-19.14ZM232.89-34.55L232.89-39.99 238.38-39.99 238.38-34.55 232.89-34.55ZM233.33 1.25L233.33-28.25 237.92-28.25 237.92 1.25 233.33 1.25ZM251.25-34.96L255.69-37.3 255.69-28.25 264.82-28.25 264.82-24.76 255.69-24.76 255.69-6.4Q255.69-4.3 256.06-3.39L256.06-3.39Q256.69-1.81 258.62-1.81L258.62-1.81Q261.16-1.81 263.72-3.56L263.72-3.56 264.99-0.32Q261.75 1.86 257.89 1.86L257.89 1.86Q251.25 1.86 251.25-5.81L251.25-5.81 251.25-24.76 244.29-24.76 244.29-28.25 251.25-28.25 251.25-34.96ZM287.13-17.41L290.55-17.41 290.55-18.36Q290.55-21.88 288.62-23.61L288.62-23.61Q286.86-25.2 283.2-25.2L283.2-25.2Q277.83-25.2 273.34-21.75L273.34-21.75 271.34-25Q276.56-28.96 283.28-28.96L283.28-28.96Q289.38-28.96 292.48-25.66L292.48-25.66Q295.04-22.92 295.04-18.14L295.04-18.14 295.04-7.54Q295.04-1.93 296.8 1.25L296.8 1.25 292.41 1.25Q291.45-0.78 290.99-3.96L290.99-3.96 290.84-3.96Q289.45-1.46 286.74 0.29L286.74 0.29Q283.98 2.1 279.93 2.1L279.93 2.1Q275.71 2.1 272.92-0.39L272.92-0.39Q269.99-3.03 269.99-7.1L269.99-7.1Q269.99-11.99 274.27-14.72L274.27-14.72Q278.49-17.41 287.13-17.41L287.13-17.41ZM290.55-10.74L290.55-13.94 287.4-13.94Q274.71-13.94 274.71-7.15L274.71-7.15Q274.71-4.96 276.07-3.49L276.07-3.49Q277.73-1.76 280.64-1.76L280.64-1.76Q284.4-1.76 287.23-4.15L287.23-4.15Q290.55-6.93 290.55-10.74L290.55-10.74ZM305.12-2.91L305.12-41.5 309.71-41.5 309.71-3.44Q309.71-2.49 310.62-2.49L310.62-2.49 314.52-2.49 314.01 1.25 309.37 1.25Q305.12 1.25 305.12-2.91L305.12-2.91ZM338.05-34.55L338.05-39.99 343.55-39.99 343.55-34.55 338.05-34.55ZM338.49 1.25L338.49-28.25 343.08-28.25 343.08 1.25 338.49 1.25ZM353.6-28.25L358.05-28.25 358.05-22.95Q360.29-25.88 363.22-27.39L363.22-27.39Q365.93-28.81 368.72-28.81L368.72-28.81Q372.38-28.81 374.99-27L374.99-27Q378.94-24.24 378.94-17.41L378.94-17.41 378.94 1.25 374.4 1.25 374.4-16.85Q374.4-24.85 368.13-24.85L368.13-24.85Q365.71-24.85 363.44-23.49L363.44-23.49Q360.02-21.48 358.19-17.5L358.19-17.5 358.19 1.25 353.6 1.25 353.6-28.25ZM416.24-17.55L401.03-39.26 406.72-39.26 418.49-21.41 430.23-39.26 435.92-39.26 420.74-17.55 420.74 1.25 416.24 1.25 416.24-17.55ZM453.55-29L453.55-29Q459.58-29 463.75-24.9L463.75-24.9Q468.17-20.58 468.17-13.53L468.17-13.53Q468.17-9.4 466.66-6.1L466.66-6.1Q464.7-1.88 460.72 0.29L460.72 0.29Q457.43 2.1 453.45 2.1L453.45 2.1Q446.27 2.1 442.07-3.2L442.07-3.2Q438.78-7.35 438.78-13.53L438.78-13.53Q438.78-21.58 444.39-25.95L444.39-25.95Q448.32-29 453.55-29ZM453.42-25.24L453.42-25.24Q448.96-25.24 446.05-21.53L446.05-21.53Q443.54-18.33 443.54-13.45L443.54-13.45Q443.54-9.99 444.83-7.32L444.83-7.32Q446.05-4.76 448.27-3.3L448.27-3.3Q450.62-1.76 453.5-1.76L453.5-1.76Q456.99-1.76 459.65-4.03L459.65-4.03Q463.41-7.28 463.41-13.48L463.41-13.48Q463.41-18.73 460.5-22.02L460.5-22.02Q457.65-25.24 453.42-25.24ZM475.3-9.59L475.3-28.25 479.84-28.25 479.84-10.21Q479.84-2.08 486.19-2.08L486.19-2.08Q488.7-2.08 491.12-3.64L491.12-3.64Q494.29-5.71 496-9.59L496-9.59 496-28.25 500.64-28.25 500.64 1.25 496.24 1.25 496.24-4.15Q494.02-1.15 491 0.42L491 0.42Q488.29 1.81 485.45 1.81L485.45 1.81Q479.86 1.81 477.2-1.95L477.2-1.95Q475.3-4.64 475.3-9.59L475.3-9.59ZM514.6-28.25L514.36-20.09 514.55-20.09Q517.65-28.96 524.15-28.96L524.15-28.96Q526.17-28.96 527.91-28.15L527.91-28.15 526.49-23.95Q525.22-24.51 523.51-24.51L523.51-24.51Q517.31-24.51 514.8-14.16L514.8-14.16 514.8 1.25 510.21 1.25 510.21-28.25 514.6-28.25ZM549.53 1.25L549.53-39.26 554.07-39.26 554.07-21.7 576.29-21.7 576.29-39.26 580.83-39.26 580.83 1.25 576.29 1.25 576.29-17.8 554.07-17.8 554.07 1.25 549.53 1.25ZM605.66-17.41L609.08-17.41 609.08-18.36Q609.08-21.88 607.15-23.61L607.15-23.61Q605.39-25.2 601.73-25.2L601.73-25.2Q596.36-25.2 591.86-21.75L591.86-21.75 589.86-25Q595.09-28.96 601.8-28.96L601.8-28.96Q607.9-28.96 611-25.66L611-25.66Q613.57-22.92 613.57-18.14L613.57-18.14 613.57-7.54Q613.57-1.93 615.33 1.25L615.33 1.25 610.93 1.25Q609.98-0.78 609.52-3.96L609.52-3.96 609.37-3.96Q607.98-1.46 605.27 0.29L605.27 0.29Q602.51 2.1 598.46 2.1L598.46 2.1Q594.23 2.1 591.45-0.39L591.45-0.39Q588.52-3.03 588.52-7.1L588.52-7.1Q588.52-11.99 592.79-14.72L592.79-14.72Q597.02-17.41 605.66-17.41L605.66-17.41ZM609.08-10.74L609.08-13.94 605.93-13.94Q593.23-13.94 593.23-7.15L593.23-7.15Q593.23-4.96 594.6-3.49L594.6-3.49Q596.26-1.76 599.16-1.76L599.16-1.76Q602.92-1.76 605.76-4.15L605.76-4.15Q609.08-6.93 609.08-10.74L609.08-10.74ZM622.96-28.25L627.41-28.25 627.41-22.95Q629.65-25.88 632.58-27.39L632.58-27.39Q635.29-28.81 638.08-28.81L638.08-28.81Q641.74-28.81 644.35-27L644.35-27Q648.31-24.24 648.31-17.41L648.31-17.41 648.31 1.25 643.77 1.25 643.77-16.85Q643.77-24.85 637.49-24.85L637.49-24.85Q635.07-24.85 632.8-23.49L632.8-23.49Q629.39-21.48 627.55-17.5L627.55-17.5 627.55 1.25 622.96 1.25 622.96-28.25ZM679.31-23.61L679.31-41.5 683.85-41.5 683.85 1.39 679.51 1.39 679.51-2.91Q678.41-1.27 676.97-0.22L676.97-0.22Q673.77 2.05 669.5 2.05L669.5 2.05Q665 2.05 661.56-0.46L661.56-0.46Q655.75-4.69 655.75-13.48L655.75-13.48Q655.75-18.55 657.92-22.31L657.92-22.31Q660.32-26.42 664.61-28.08L664.61-28.08Q666.93-28.96 669.37-28.96L669.37-28.96Q673.52-28.96 676.75-26.46L676.75-26.46Q678.26-25.29 679.31-23.61L679.31-23.61ZM679.31-7.91L679.31-18.6Q675.6-25.15 670.23-25.15L670.23-25.15Q666.91-25.15 664.34-22.92L664.34-22.92Q660.56-19.68 660.56-13.38L660.56-13.38Q660.56-9.08 662.37-6.15L662.37-6.15Q665.05-1.76 670.25-1.76L670.25-1.76Q673.57-1.76 676.33-4.05L676.33-4.05Q678.04-5.49 679.31-7.91L679.31-7.91Z" opacity="1" transform="matrix(1,0,0,1,0,0)" fill="#375a82" class="slogan-text-1" data-fill-palette-color="secondary" id="text-1"></path></svg></g></svg></g></svg></g></svg></g><g transform="matrix(1,0,0,1,0,0.272608089446301)"><svg viewBox="0 0 109.0432357785217 109.0432357785217" height="109.0432357785217" width="109.0432357785217"><g><svg xmlns="http://www.w3.org/2000/svg" xmlns:xlink="http://www.w3.org/1999/xlink" version="1.1" x="0" y="0" viewBox="0 0 100 100" enable-background="new 0 0 100 100" xml:space="preserve" height="109.0432357785217" width="109.0432357785217" class="icon-icon-0" data-fill-palette-color="accent" id="icon-0"><path d="M49.594 27.337C49.138 27.337 48.76 27.701 48.752 28.122 48.759 28.551 49.138 28.902 49.594 28.902 50.039 28.902 50.426 28.551 50.426 28.122 50.426 27.701 50.039 27.337 49.594 27.337M49.594 0C40.823 0.004 41.322 8.488 31.265 12.745L37.453 18.571C40.394 15.278 44.733 13.143 49.654 13.143 54.775 13.143 59.283 15.439 62.204 18.949L68.733 12.806C58.792 8.345 58.583 0.004 49.594 0M53.144 8.188H50.75L50.751 10.604H48.89V8.188H46.495L46.499 6.306H48.89V3.893H50.747L50.749 6.305H53.144z" fill="#375a82" data-fill-palette-color="accent"></path><path d="M49.999 55.63C54.109 55.61 57.449 52.26 57.449 48.111 57.449 47.367 57.338 46.652 57.138 45.973A16.5 16.5 0 0 0 50.002 44.343C47.447 44.343 45.035 44.939 42.868 45.973A7.7 7.7 0 0 0 42.548 48.111C42.573 52.26 45.889 55.61 49.999 55.63M74.449 100L65.235 68.154C66.181 66.036 66.735 63.705 66.735 61.235 66.735 55.691 64.079 50.785 59.99 47.705 59.995 47.84 60.011 47.973 60.011 48.11 60.011 53.248 56.204 57.468 51.283 58.104V66.011A4.32 4.32 0 0 1 54.388 70.178C54.388 72.585 52.473 74.543 50.069 74.543 47.694 74.543 45.749 72.585 45.749 70.178A4.34 4.34 0 0 1 48.721 66.057V58.106C43.798 57.474 39.985 53.252 39.985 48.11 39.985 47.975 40 47.844 40.005 47.711 35.922 50.793 33.265 55.695 33.265 61.235 33.265 63.701 33.816 66.032 34.762 68.146L25.55 100zM48.321 70.179C48.321 71.151 49.118 71.954 50.071 71.954 51.051 71.954 51.848 71.15 51.848 70.179 51.848 69.195 51.051 68.39 50.071 68.39 49.118 68.39 48.321 69.194 48.321 70.179" fill="#375a82" data-fill-palette-color="accent"></path><path fill-rule="evenodd" clip-rule="evenodd" d="M61.156 25.946C61.156 32.159 56.159 37.207 49.999 37.207 43.84 37.207 38.842 32.159 38.842 25.946 38.842 19.722 43.84 14.681 49.999 14.681 56.159 14.682 61.156 19.723 61.156 25.946" fill="#375a82" data-fill-palette-color="accent"></path><path fill-rule="evenodd" clip-rule="evenodd" d="M0 78.457V90.885H100V78.457zM92.59 85.825H90.195L90.196 88.243H88.336V85.825H85.941L85.945 83.943H88.336V81.532H90.192L90.193 83.943H92.589z" fill="#375a82" data-fill-palette-color="accent"></path></svg></g></svg></g></svg></g><defs></defs></svg><rect width="395.52" height="79.26444554819653" fill="none" stroke="none" visibility="hidden"></rect></g></svg></g></svg>